#!OML:ASF E:\motion texture\Top Level 1\Subject 1\Session 1\male.ASF
:FULLY-SPECIFIED
:DEGREES
479
root 0.411362 18.182 4.23831 659.233 -101.695 -660.785
lowerback 4.36905 3.58024 8.53679
upperback -0.365629 5.21419 2.80687
thorax -2.33207 2.46621 -2.15519
lowerneck -17.9318 -5.54327 -7.62653
upperneck 13.1933 -6.63611 6.04478
head 7.45269 -3.01528 2.43834
rclavicle 1.45734e-014 3.75703e-014
rhumerus 24.2292 15.5332 -69.7128
rradius 77.9841
rwrist -10.5942
rhand -18.9151 -12.0647
rfingers 7.12502
rthumb 7.38708 -41.9157
lclavicle 1.45734e-014 3.75703e-014
lhumerus -62.7155 -5.29599 58.0626
lradius 30.5859
lwrist -13.4001
lhand -10.4904 5.51527
lfingers 7.12502
lthumb 15.5114 34.9131
rfemur 4.4589 4.09389 37.326
rtibia 20.289
rfoot 169.333 -181.78
rtoes 11.8167
lfemur -89.0355 6.62288 -14.5155
ltibia 66.866
lfoot 364.029 189.172
ltoes -5.62267
480
root 0.281575 18.1769 4.23857 659.004 -101.713 -660.333
lowerback 4.15254 3.57706 8.56153
upperback -0.431568 5.19136 2.8039
thorax -2.27902 2.45521 -2.15763
lowerneck -17.9171 -5.55475 -7.6591
upperneck 13.1967 -6.66467 6.15244
head 7.45859 -3.02117 2.47577
rclavicle -4.48687e-014 1.98785e-016
rhumerus 23.7464 15.4977 -69.8377
rradius 77.9588
rwrist -10.5338
rhand -18.8548 -12.0654
rfingers 7.12502
rthumb 7.44535 -41.9144
lclavicle -4.48687e-014 1.98785e-016
lhumerus -62.6115 -5.44469 58.283
lradius 30.6722
lwrist -13.3115
lhand -10.5148 5.50078
lfingers 7.12502
lthumb 15.4878 34.9004
rfemur 4.62259 4.06112 37.3153
rtibia 20.3653
rfoot 169.221 -181.624
rtoes 11.2595
lfemur -88.3969 6.5583 -14.5053
ltibia 68.5174
lfoot 364.42 189.854
ltoes -5.82611
481
root 0.150936 18.1711 4.23887 658.856 -101.743 -659.93
lowerback 3.89936 3.57776 8.58433
upperback -0.509187 5.17003 2.80675
thorax -2.21808 2.44493 -2.15099
lowerneck -17.891 -5.56426 -7.66875
upperneck 13.2014 -6.69212 6.23067
head 7.46103 -3.02829 2.50015
rclavicle 5.01442e-014 5.30755e-014
rhumerus 23.166 15.4998 -70.0224
rradius 77.9407
rwrist -10.4751
rhand -18.7875 -12.0634
rfingers 7.12502
rthumb 7.51027 -41.9101
lclavicle 5.01442e-014 5.30755e-014
lhumerus -62.4628 -5.55246 58.5629
lradius 30.7545
lwrist -13.2468
lhand -10.5453 5.49898
lfingers 7.12502
lthumb 15.4585 34.9009
rfemur 4.76123 4.0245 37.2994
rtibia 20.4271
rfoot 169.112 -181.444
rtoes 10.7157
lfemur -87.6272 6.54837 -14.4763
ltibia 70.2671
lfoot 364.861 190.618
ltoes -5.94954
482
root 0.0192711 18.1644 4.23901 658.833 -101.791 -659.622
lowerback 3.61898 3.58533 8.60126
upperback -0.598545 5.15501 2.81823
thorax -2.15472 2.43755 -2.1311
lowerneck -17.8584 -5.57219 -7.65711
upperneck 13.2098 -6.71804 6.27849
head 7.46158 -3.03651 2.51136
rclavicle 4.77603e-014 3.60794e-014
rhumerus 22.4873 15.5399 -70.2633
rradius 77.9289
rwrist -10.4117
rhand -18.7192 -12.0628
rfingers 7.12502
rthumb 7.5762 -41.9071
lclavicle 4.77603e-014 3.60794e-014
lhumerus -62.2776 -5.61822 58.9006
lradius 30.8406
lwrist -13.2043
lhand -10.577 5.50228
lfingers 7.12502
lthumb 15.4279 34.9065
rfemur 4.88207 4.00076 37.2881
rtibia 20.48
rfoot 168.997 -181.259
rtoes 10.1449
lfemur -86.7258 6.60556 -14.4269
ltibia 72.1199
lfoot 365.351 191.473
ltoes -6.00258
483
root -0.113543 18.1568 4.23898 658.972 -101.85 -659.453
lowerback 3.31123 3.60328 8.60782
upperback -0.69662 5.15056 2.83082
thorax -2.08496 2.43556 -2.10319
lowerneck -17.8195 -5.58122 -7.62472
upperneck 13.2191 -6.74729 6.30401
head 7.46003 -3.04744 2.51157
rclavicle 1.00223e-014 -4.53229e-014
rhumerus 21.711 15.6055 -70.5612
rradius 77.9219
rwrist -10.3392
rhand -18.6372 -12.0786
rfingers 7.12502
rthumb 7.65538 -41.9201
lclavicle 1.00223e-014 -4.53229e-014
lhumerus -62.049 -5.64978 59.2864
lradius 30.9312
lwrist -13.1734
lhand -10.6029 5.51549
lfingers 7.12502
lthumb 15.403 34.9217
rfemur 4.99283 4.00114 37.2754
rtibia 20.5157
rfoot 168.879 -181.08
rtoes 9.5627
lfemur -85.6927 6.73085 -14.3666
ltibia 74.081
lfoot 365.884 192.417
ltoes -5.99512
484
root -0.247759 18.1483 4.23848 659.268 -101.92 -659.427
lowerback 2.98722 3.62774 8.59716
upperback -0.804385 5.15275 2.84734
thorax -2.01728 2.4367 -2.06127
lowerneck -17.7628 -5.58886 -7.55855
upperneck 13.2233 -6.7768 6.28821
head 7.45104 -3.06092 2.49301
rclavicle 1.14379e-014 3.58806e-014
rhumerus 20.8399 15.7086 -70.9124
rradius 77.9183
rwrist -10.2581
rhand -18.5642 -12.1222
rfingers 7.12502
rthumb 7.72583 -41.961
lclavicle 1.14379e-014 3.58806e-014
lhumerus -61.7967 -5.64132 59.7156
lradius 31.0356
lwrist -13.1526
lhand -10.6292 5.51975
lfingers 7.12502
lthumb 15.3777 34.9279
rfemur 5.10674 4.03432 37.2679
rtibia 20.5332
rfoot 168.758 -180.926
rtoes 8.94877
lfemur -84.5237 6.92457 -14.2953
ltibia 76.1495
lfoot 366.464 193.455
ltoes -5.95895
